# File created by Blade
# Date/Time:  Fri Jan 16 17:25:32 2015
#---------------------------------------------------------
:version 1.10
:name HOM
:units
  mass 1.0
  length 1.000000
  angle deg
:documentation
     Acclaim Skeleton File
:root
   axis xyz
   order TX TY TZ RX RY RZ
   position 0.000000 0.000000 0.000000
   orientation 0 0 0
:bonedata
   begin
      id 1
      name Spine_dum
      direction 0.000000 1.000000 0.000000
      length 7.170412
      axis 0.0 0.0 0.0 xyz
   end
   begin
      id 2
      name LeftUpLeg_dum
      direction 1.000000 0.000000 0.000000
      length 4.318350
      axis 0.0 0.0 0.0 xyz
   end
   begin
      id 3
      name RightUpLeg_dum
      direction -1.000000 0.000000 0.000000
      length 4.318350
      axis 0.0 0.0 0.0 xyz
   end
   begin
      id 4
      name Spine
      direction 0.000000 1.000000 0.000000
      length 0.000000
      axis 0.0 0.0 0.0 xyz
      dof rx ry rz
   end
   begin
      id 5
      name Spine_dum1
      direction 0.000000 1.000000 0.000000
      length 14.276153
      axis 0.0 0.0 0.0 xyz
   end
   begin
      id 6
      name Spine_dum2
      direction 0.000000 1.000000 0.000000
      length 10.718243
      axis 0.0 0.0 0.0 xyz
   end
   begin
      id 7
      name Spine_dum3
      direction 0.000000 1.000000 0.000000
      length 10.718243
      axis 0.0 0.0 0.0 xyz
   end
   begin
      id 8
      name Head
      direction 0.000000 1.000000 0.000000
      length 4.527550
      axis 0.0 0.0 0.0 xyz
      dof rx ry rz
   end
   begin
      id 9
      name LeftShoulder
      direction 1.000000 0.000000 0.000000
      length 7.058872
      axis 0.0 0.0 -90.0 xyz
      dof rx ry rz
   end
   begin
      id 10
      name LeftArm
      direction 1.000000 0.000000 0.000000
      length 10.955525
      axis 0.0 0.0 -90.0 xyz
      dof rx ry rz
   end
   begin
      id 11
      name LeftForeArm
      direction 1.000000 0.000000 0.000000
      length 8.193716
      axis 0.0 0.0 -90.0 xyz
      dof ry rz rx
   end
   begin
      id 12
      name LeftHand
      direction 0.000000 0.000000 0.000000
      length 0.000000
      axis 0.0 0.0 -90.0 xyz
      dof rx ry rz
   end
   begin
      id 13
      name LeftHand_dum1
      direction 0.000000 0.000000 0.000000
      length 0.000000
      axis 0.0 0.0 -90.0 xyz
   end
   begin
      id 14
      name LeftHand_dum2
      direction 1.000000 0.000000 0.000000
      length 3.937000
      axis 0.0 0.0 -90.0 xyz
   end
   begin
      id 15
      name LeftHandThumb1
      direction 0.000000 0.000000 1.000000
      length 3.937000
      axis 0.0 0.0 -90.0 xyz
      dof rx rz ry
   end
   begin
      id 16
      name RightShoulder
      direction -1.000000 0.000000 0.000000
      length 7.058872
      axis 0.0 0.0 90.0 xyz
      dof rx ry rz
   end
   begin
      id 17
      name RightArm
      direction -1.000000 0.000000 0.000000
      length 10.955525
      axis 0.0 0.0 90.0 xyz
      dof rx ry rz
   end
   begin
      id 18
      name RightForeArm
      direction -1.000000 0.000000 0.000000
      length 8.193716
      axis 0.0 0.0 90.0 xyz
      dof ry rz rx
   end
   begin
      id 19
      name RightHand
      direction 0.000000 0.000000 0.000000
      length 0.000000
      axis 0.0 0.0 90.0 xyz
      dof rx ry rz
   end
   begin
      id 20
      name RightHand_dum1
      direction 0.000000 0.000000 0.000000
      length 0.000000
      axis 0.0 0.0 90.0 xyz
   end
   begin
      id 21
      name RightHand_dum2
      direction -1.000000 0.000000 0.000000
      length 3.937000
      axis 0.0 0.0 90.0 xyz
   end
   begin
      id 22
      name RightHandThumb1
      direction 0.000000 0.000000 1.000000
      length 3.937000
      axis 0.0 0.0 90.0 xyz
      dof rx rz ry
   end
   begin
      id 23
      name LeftUpLeg
      direction 0.000000 -1.000000 0.000000
      length 17.323638
      axis 0.0 0.0 0.0 xyz
      dof rx ry rz
   end
   begin
      id 24
      name LeftLeg
      direction 0.000000 -1.000000 0.000000
      length 16.270368
      axis 0.0 0.0 0.0 xyz
      dof rx ry rz
   end
   begin
      id 25
      name LeftFoot
      direction 0.000000 -0.258819 0.965926
      length 4.922846
      axis 15.0 0.0 0.0 xyz
      dof rx ry rz
   end
   begin
      id 26
      name LeftToeBase
      direction 0.000000 0.000000 1.000000
      length 2.952750
      axis 0.0 0.0 0.0 xyz
      dof rx ry rz
   end
   begin
      id 27
      name RightUpLeg
      direction 0.000000 -1.000000 0.000000
      length 17.323638
      axis 0.0 0.0 0.0 xyz
      dof rx ry rz
   end
   begin
      id 28
      name RightLeg
      direction 0.000000 -1.000000 0.000000
      length 16.270368
      axis 0.0 0.0 0.0 xyz
      dof rx ry rz
   end
   begin
      id 29
      name RightFoot
      direction 0.000000 -0.258819 0.965926
      length 4.922846
      axis 15.0 0.0 0.0 xyz
      dof rx ry rz
   end
   begin
      id 30
      name RightToeBase
      direction 0.000000 0.000000 1.000000
      length 2.952750
      axis 0.0 0.0 0.0 xyz
      dof rx ry rz
   end
:hierarchy
   begin
      root Spine_dum LeftUpLeg_dum RightUpLeg_dum
      Spine_dum Spine
      LeftUpLeg_dum LeftUpLeg
      RightUpLeg_dum RightUpLeg
      Spine Spine_dum1 Spine_dum2 Spine_dum3
      Spine_dum1 Head
      Spine_dum2 LeftShoulder
      Spine_dum3 RightShoulder
      LeftShoulder LeftArm
      LeftArm LeftForeArm
      LeftForeArm LeftHand
      LeftHand LeftHand_dum1 LeftHand_dum2
      LeftHand_dum1 LeftHandThumb1
      RightShoulder RightArm
      RightArm RightForeArm
      RightForeArm RightHand
      RightHand RightHand_dum1 RightHand_dum2
      RightHand_dum1 RightHandThumb1
      LeftUpLeg LeftLeg
      LeftLeg LeftFoot
      LeftFoot LeftToeBase
      RightUpLeg RightLeg
      RightLeg RightFoot
      RightFoot RightToeBase
   end

# File created by Blade
# Date/Time:  Fri Jan 16 17:25:22 2015
# Frame Rate: 120.000 fps
#------------------------------------------------------
:FULLY-SPECIFIED
:DEGREES
1145
root -5.733804 35.221529 -10.434587 -2.672667 -10.072410 -6.285469
Spine 3.136851 0.942938 9.753546
Head 2.965342 1.722184 -5.878568
LeftShoulder -18.621739 15.811800 -16.606236
LeftArm 26.333073 20.455152 -65.765458
LeftForeArm 13.069631 0.000000 15.220304
LeftHand 0.716655 -0.000000 -5.484390
LeftHandThumb1 -26.253704 0.000000 33.147579
RightShoulder -1.375566 -3.740184 2.722040
RightArm 11.031227 -36.060660 66.016358
RightForeArm -25.563236 -0.000000 24.027734
RightHand 2.245452 -0.000000 7.724853
RightHandThumb1 -24.326973 -0.000000 -32.862282
LeftUpLeg 13.323291 17.436466 8.501371
LeftLeg -9.246891 -0.000000 0.000000
LeftFoot -15.286996 29.646606 -7.677471
LeftToeBase 23.022615 -0.000000 -0.000000
RightUpLeg 8.345797 -3.867609 2.952929
RightLeg -4.380981 -0.000000 0.000000
RightFoot -3.591617 -22.461657 5.279443
RightToeBase 13.694061 -0.000000 -0.000000
1146
root -5.732945 35.222371 -10.433961 -2.658397 -10.071697 -6.281043
Spine 3.131487 0.983161 9.747840
Head 2.929481 1.640512 -5.884953
LeftShoulder -18.616261 15.778975 -16.604604
LeftArm 26.299680 20.415228 -65.828455
LeftForeArm 13.231188 0.000000 15.244088
LeftHand 0.716305 -0.000000 -5.345367
LeftHandThumb1 -26.253704 0.000000 33.147579
RightShoulder -1.343460 -3.735090 2.689890
RightArm 10.978783 -36.029998 66.088169
RightForeArm -25.596513 -0.000000 24.010146
RightHand 2.121501 -0.000000 7.379320
RightHandThumb1 -24.326973 -0.000000 -32.862282
LeftUpLeg 13.311384 17.404452 8.485392
LeftLeg -9.254079 -0.000000 0.000000
LeftFoot -15.290588 29.676488 -7.723574
LeftToeBase 22.979051 -0.000000 -0.000000
RightUpLeg 8.339924 -3.894093 2.945264
RightLeg -4.399871 -0.000000 0.000000
RightFoot -3.568084 -22.435463 5.262931
RightToeBase 13.724500 -0.000000 -0.000000
1147
root -5.733774 35.222510 -10.436114 -2.608085 -10.078003 -6.284450
Spine 3.078758 1.042956 9.743439
Head 2.921200 1.557982 -5.876218
LeftShoulder -18.597083 15.766426 -16.583397
LeftArm 26.302021 20.444117 -65.842096
LeftForeArm 13.286779 -0.000000 15.232551
LeftHand 0.745447 -0.000000 -5.413721
LeftHandThumb1 -26.253704 0.000000 33.147579
RightShoulder -1.302871 -3.733453 2.676001
RightArm 10.918058 -36.008758 66.152685
RightForeArm -25.716380 -0.000000 23.990178
RightHand 2.440850 -0.000000 7.856133
RightHandThumb1 -24.326973 -0.000000 -32.862282
LeftUpLeg 13.257763 17.384410 8.471019
LeftLeg -9.254006 -0.000000 0.000000
LeftFoot -15.286190 29.701394 -7.731741
LeftToeBase 22.987654 -0.000000 -0.000000
RightUpLeg 8.291644 -3.883324 2.958432
RightLeg -4.412759 -0.000000 0.000000
RightFoot -3.557056 -22.446269 5.278136
RightToeBase 13.706112 -0.000000 -0.000000
1148
root -5.733990 35.222693 -10.436789 -2.569195 -10.081843 -6.286197
Spine 3.039301 1.101664 9.744281
Head 2.906801 1.484306 -5.883273
LeftShoulder -18.586205 15.734286 -16.570018
LeftArm 26.286075 20.456094 -65.875218
LeftForeArm 13.341775 0.000000 15.226039
LeftHand 0.729436 -0.000000 -5.370050
LeftHandThumb1 -26.253704 0.000000 33.147579
RightShoulder -1.264008 -3.713982 2.640630
RightArm 10.838235 -36.009386 66.241893
RightForeArm -25.765400 -0.000000 23.957879
RightHand 2.478844 0.000000 7.839230
RightHandThumb1 -24.326973 -0.000000 -32.862282
LeftUpLeg 13.217748 17.382734 8.459257
LeftLeg -9.254435 -0.000000 0.000000
LeftFoot -15.292341 29.711390 -7.726326
LeftToeBase 23.014755 -0.000000 -0.000000
RightUpLeg 8.256512 -3.891049 2.962125
RightLeg -4.425619 -0.000000 0.000000
RightFoot -3.543088 -22.443950 5.275127
RightToeBase 13.700847 -0.000000 -0.000000
1149
root -5.733466 35.221934 -10.441558 -2.499463 -10.048394 -6.296638
Spine 2.969343 1.130983 9.759994
Head 2.876968 1.408532 -5.911901
LeftShoulder -18.583126 15.681642 -16.558369
LeftArm 26.265814 20.486064 -65.904796
LeftForeArm 13.407188 -0.000000 15.219578
LeftHand 0.695356 -0.000000 -5.363237
LeftHandThumb1 -26.253704 0.000000 33.147579
RightShoulder -1.247018 -3.695134 2.590752
RightArm 10.781506 -35.995217 66.341769
RightForeArm -25.849041 -0.000000 23.912167
RightHand 2.517803 -0.000000 7.824069
RightHandThumb1 -24.326973 -0.000000 -32.862282
LeftUpLeg 13.134337 17.436110 8.453043
LeftLeg -9.265588 -0.000000 0.000000
LeftFoot -15.264431 29.661599 -7.676102
LeftToeBase 23.000224 -0.000000 -0.000000
RightUpLeg 8.182201 -3.950624 2.973504
RightLeg -4.427232 -0.000000 0.000000
RightFoot -3.531188 -22.418294 5.253791
RightToeBase 13.734112 -0.000000 -0.000000
1150
root -5.732036 35.223783 -10.443510 -2.453000 -10.040436 -6.270077
Spine 2.915814 1.199040 9.725214
Head 2.860167 1.311454 -5.918178
LeftShoulder -18.564235 15.625582 -16.552106
LeftArm 26.229167 20.487180 -65.916064
LeftForeArm 13.472717 -0.000000 15.225363
LeftHand 0.650004 -0.000000 -5.384583
LeftHandThumb1 -26.253704 0.000000 33.147579
RightShoulder -1.238280 -3.683972 2.583818
RightArm 10.722412 -35.957413 66.415688
RightForeArm -25.942947 -0.000000 23.870694
RightHand 2.539150 -0.000000 7.853267
RightHandThumb1 -24.326973 -0.000000 -32.862282
LeftUpLeg 13.063378 17.429740 8.404201
LeftLeg -9.242844 -0.000000 0.000000
LeftFoot -15.261669 29.663128 -7.724668
LeftToeBase 22.949884 -0.000000 -0.000000
RightUpLeg 8.133700 -3.968599 2.944920
RightLeg -4.435373 -0.000000 0.000000
RightFoot -3.522911 -22.393992 5.241949
RightToeBase 13.717255 -0.000000 -0.000000
1151
root -5.732266 35.222651 -10.443673 -2.406006 -10.057001 -6.290851
Spine 2.870838 1.280563 9.762082
Head 2.829839 1.251994 -5.954372
LeftShoulder -18.572079 15.591986 -16.554204
LeftArm 26.229474 20.507969 -65.934187
LeftForeArm 13.529712 -0.000000 15.224702
LeftHand 0.618098 -0.000000 -5.383071
LeftHandThumb1 -26.253704 0.000000 33.147579
RightShoulder -1.211765 -3.654544 2.519634
RightArm 10.620912 -35.918342 66.545357
RightForeArm -26.067812 -0.000000 23.840017
RightHand 2.593370 0.000000 7.887961
RightHandThumb1 -24.326973 -0.000000 -32.862282
LeftUpLeg 13.039172 17.484522 8.420495
LeftLeg -9.277056 -0.000000 0.000000
LeftFoot -15.250388 29.648916 -7.652811
LeftToeBase 23.061794 -0.000000 -0.000000
RightUpLeg 8.100928 -3.947452 2.970077
RightLeg -4.461109 -0.000000 0.000000
RightFoot -3.503347 -22.409318 5.242953
RightToeBase 13.688312 -0.000000 -0.000000
1152
root -5.731252 35.222170 -10.442105 -2.378693 -10.074648 -6.298995
Spine 2.845595 1.348627 9.781334
Head 2.797825 1.208413 -5.984626
LeftShoulder -18.575444 15.543240 -16.559472
LeftArm 26.204942 20.515079 -65.952135
LeftForeArm 13.537976 -0.000000 15.227917
LeftHand 0.595764 0.000000 -5.357391
LeftHandThumb1 -26.253704 0.000000 33.147579
RightShoulder -1.165678 -3.652029 2.474796
RightArm 10.549932 -35.885588 66.630609
RightForeArm -26.144605 -0.000000 23.814595
RightHand 2.674259 -0.000000 7.981899
RightHandThumb1 -24.326973 -0.000000 -32.862282
LeftUpLeg 13.034010 17.531747 8.425314
LeftLeg -9.304690 -0.000000 0.000000
LeftFoot -15.234954 29.624058 -7.675716
LeftToeBase 23.018515 -0.000000 -0.000000
RightUpLeg 8.082524 -3.939835 2.980688
RightLeg -4.475460 -0.000000 0.000000
RightFoot -3.497347 -22.410855 5.264121
RightToeBase 13.714699 -0.000000 -0.000000
1153
root -5.730645 35.221782 -10.441122 -2.338698 -10.081795 -6.294373
Spine 2.795653 1.434308 9.781069
Head 2.781719 1.146628 -6.013536
LeftShoulder -18.570998 15.527611 -16.563586
LeftArm 26.212826 20.518244 -65.950874
LeftForeArm 13.526122 -0.000000 15.227339
LeftHand 0.578092 -0.000000 -5.351810
LeftHandThumb1 -26.253704 0.000000 33.147579
RightShoulder -1.145361 -3.636923 2.445706
RightArm 10.450072 -35.831469 66.735304
RightForeArm -26.263183 -0.000000 23.796034
RightHand 2.731212 0.000000 8.019506
RightHandThumb1 -24.326973 -0.000000 -32.862282
LeftUpLeg 13.000252 17.546273 8.409178
LeftLeg -9.314289 -0.000000 0.000000
LeftFoot -15.237799 29.617553 -7.679347
LeftToeBase 23.024338 -0.000000 -0.000000
RightUpLeg 8.054051 -3.966526 2.974444
RightLeg -4.500541 -0.000000 0.000000
RightFoot -3.482670 -22.378090 5.275549
RightToeBase 13.695752 -0.000000 -0.000000
